<svg width="80" height="80" viewBox="0 0 80 80" fill="none" xmlns="http://www.w3.org/2000/svg">
<circle cx="40" cy="40" r="39.5" fill="white" stroke="#E6650C"/>
<path d="M20.5682 28.82C20.2322 28.916 20.1242 28.928 19.4042 28.928H13.1402C12.3122 28.928 11.9402 28.904 11.4842 28.832V30.332C11.9762 30.272 12.2762 30.26 13.1162 30.26H19.4162C19.1402 30.836 18.7682 31.328 18.2762 31.784C17.7842 32.252 17.3282 32.528 16.5242 32.888C17.0642 33.296 17.2442 33.476 17.6042 33.98C18.1682 33.668 18.5642 33.404 19.0442 32.984C19.7762 32.36 20.4722 31.46 20.8922 30.572C21.2042 29.948 21.2042 29.936 21.3722 29.732L20.5682 28.82ZM14.8682 31.244C14.9162 31.496 14.9282 31.604 14.9282 31.964C14.9282 34.232 14.5442 35.264 13.3202 36.236C12.7322 36.704 12.1922 36.968 11.2202 37.256C11.7002 37.76 11.8562 37.976 12.1682 38.624C13.6682 38 14.5442 37.388 15.2642 36.464C16.0802 35.42 16.4042 34.268 16.4522 32.216C16.4642 31.484 16.4642 31.472 16.5002 31.244H14.8682ZM24.8402 28.556C24.9002 28.952 24.9002 28.952 24.9002 29.792L24.8522 36.272C24.8522 36.968 24.8282 37.184 24.7442 37.508L25.5122 38.432C25.7642 38.336 25.9082 38.288 26.2322 38.228C28.1762 37.856 29.4002 37.388 30.6002 36.584C31.6802 35.864 32.4482 35.06 33.2762 33.788C32.7602 33.356 32.6042 33.188 32.1362 32.564C31.5362 33.728 30.7922 34.556 29.6882 35.312C28.7882 35.936 27.6602 36.392 26.4122 36.632L26.4722 29.78C26.4842 29.192 26.4962 28.892 26.5442 28.568L24.8402 28.556ZM37.0558 28.616C37.1038 28.94 37.1038 29.048 37.1038 29.708C37.1038 33.068 36.8278 34.616 35.9638 35.996C35.6038 36.572 35.3158 36.896 34.7278 37.376C35.2918 37.76 35.4718 37.94 35.9398 38.54C36.7318 37.76 37.1878 37.148 37.5958 36.32C38.2198 35.084 38.4838 33.728 38.5678 31.388C38.6398 29.036 38.6398 29.036 38.6878 28.7L37.0558 28.616ZM40.2358 28.532C40.2718 28.76 40.2838 29.024 40.2838 29.324V29.684L40.2238 36.452C40.2118 37.112 40.1998 37.376 40.1158 37.724L40.8838 38.54C41.0398 38.468 41.1358 38.42 41.3998 38.324C42.6478 37.832 43.2718 37.472 43.9558 36.884C44.7478 36.176 45.3718 35.276 45.8638 34.088C45.3118 33.656 45.1558 33.5 44.7358 32.96C44.4598 33.848 44.1118 34.508 43.5598 35.156C43.0438 35.768 42.5638 36.128 41.7238 36.524L41.7838 29.696C41.7958 29.108 41.8078 28.904 41.8678 28.556L40.2358 28.532ZM52.5958 30.488L52.4038 29.444C52.2838 28.76 52.2718 28.616 52.2598 28.316L50.6758 28.568C50.7958 28.892 50.8438 29.06 50.9638 29.708L51.1438 30.716L48.9118 31.064C48.3598 31.148 47.9638 31.196 47.5918 31.196L47.8318 32.672C48.1438 32.588 48.2878 32.552 49.1518 32.408L51.3838 32.06L51.7438 34.028L48.8278 34.496C48.2278 34.58 47.9158 34.616 47.5558 34.616L47.7958 36.08C48.1918 35.972 48.4318 35.912 49.0198 35.828L51.9838 35.36L52.4158 37.724C52.5358 38.408 52.5598 38.648 52.5718 38.972L54.1798 38.696C54.0478 38.3 54.0358 38.192 53.8918 37.448L53.4598 35.132L56.3158 34.676C56.5558 34.64 56.7118 34.616 56.7958 34.604L56.9878 34.568C57.2398 34.532 57.2758 34.532 57.5398 34.52L57.2758 33.068C56.9878 33.164 56.7118 33.224 56.0278 33.344L53.2078 33.8L52.8478 31.832L55.3798 31.436L56.0638 31.328L56.1598 31.304C56.2918 31.292 56.3518 31.292 56.5318 31.28L56.3518 30.212L56.9638 29.972C56.6278 29.18 56.3638 28.7 55.8958 28.076L55.0198 28.4C55.4278 28.964 55.5958 29.252 55.9198 29.948C55.7398 29.984 55.4038 30.044 55.1278 30.092L52.5958 30.488ZM58.4638 29.348C58.1758 28.64 57.8998 28.16 57.4078 27.524L56.5558 27.86C56.9518 28.4 57.2998 29.012 57.5878 29.72L58.4638 29.348ZM59.7118 34.232C60.1918 34.172 60.3238 34.172 61.6678 34.172H68.0398C69.3838 34.172 69.5158 34.172 69.9958 34.232V32.564C69.4678 32.636 69.2398 32.648 68.0518 32.648H61.6558C60.4678 32.648 60.2398 32.636 59.7118 32.564V34.232ZM18.714 46.792C20.826 46.996 23.286 47.512 25.266 48.172L25.746 46.696C23.07 45.976 21.57 45.676 19.254 45.4L18.714 46.792ZM18.522 50.092C19.758 50.248 20.538 50.38 21.558 50.62C23.058 50.956 23.91 51.208 24.858 51.58L25.326 50.104C22.914 49.384 20.994 48.952 19.074 48.712L18.522 50.092ZM17.55 53.464C18.858 53.632 19.842 53.812 21.318 54.16C23.214 54.604 24.318 54.952 25.566 55.504L26.082 53.992C23.286 53.02 21.018 52.48 18.114 52.096L17.55 53.464ZM39.546 54.148C38.094 52.744 38.094 52.744 37.794 52.48C36.978 51.748 36.33 51.244 35.574 50.74C36.306 49.756 36.894 48.712 37.446 47.428C37.578 47.128 37.674 46.96 37.83 46.78L37.038 45.964C36.738 46.072 36.642 46.084 35.97 46.096L31.746 46.156C31.602 46.156 31.506 46.156 31.458 46.156C30.966 46.156 30.738 46.144 30.402 46.084L30.45 47.62C30.858 47.56 31.182 47.536 31.758 47.524C35.538 47.464 35.538 47.464 35.73 47.452L35.598 47.764C34.818 49.636 33.378 51.376 31.566 52.648C30.666 53.284 30.09 53.608 29.166 53.968C29.658 54.484 29.802 54.676 30.138 55.3C31.974 54.4 33.354 53.344 34.71 51.832C36.018 52.828 37.398 54.172 38.394 55.396L39.546 54.148ZM46.818 47.932C46.794 49.972 46.662 50.932 46.254 52.048C45.798 53.308 45.066 54.172 43.83 54.94C44.238 55.228 44.466 55.48 44.85 56.008C45.786 55.3 46.338 54.7 46.818 53.896C47.418 52.912 47.802 51.748 47.958 50.44H50.202C50.178 51.964 50.046 53.464 49.89 54.04C49.77 54.496 49.65 54.58 49.098 54.58C48.582 54.58 48.27 54.556 47.49 54.448C47.658 54.904 47.73 55.252 47.754 55.744C48.642 55.804 48.774 55.816 49.11 55.816C50.634 55.816 51.054 55.408 51.27 53.728C51.354 52.972 51.462 51.448 51.498 50.152C51.522 49.48 51.522 49.468 51.558 49.228C51.258 49.264 50.934 49.276 50.466 49.276H48.078C48.102 48.844 48.114 48.532 48.126 47.932H50.97C51.558 47.932 51.906 47.944 52.254 47.992V46.66C51.906 46.708 51.606 46.72 50.946 46.72H49.134V45.904C49.134 45.508 49.158 45.232 49.206 44.968H47.766C47.814 45.22 47.838 45.52 47.838 45.904V46.72H46.422C46.038 46.72 45.774 46.708 45.45 46.684C45.51 46.504 45.522 46.468 45.582 46.312C45.606 46.288 45.618 46.252 45.63 46.216C45.666 46.12 45.666 46.108 45.69 46.048L45.126 45.232C44.91 45.268 44.718 45.28 44.334 45.28H42.486C42.066 45.28 41.79 45.268 41.55 45.232C41.574 45.568 41.586 45.964 41.586 46.384V54.592C41.586 55.132 41.562 55.588 41.514 55.972H42.894C42.858 55.516 42.834 55.096 42.834 54.604V46.432H44.178C43.926 47.452 43.65 48.136 43.122 49.108C43.578 49.672 43.758 49.948 43.938 50.356C44.094 50.728 44.19 51.172 44.19 51.484C44.19 51.892 44.022 52.072 43.65 52.072C43.494 52.072 43.302 52.06 43.074 52.024C43.254 52.384 43.314 52.636 43.338 53.236C43.434 53.236 43.506 53.236 43.554 53.236C44.826 53.236 45.45 52.732 45.45 51.736C45.45 50.74 45.21 50.152 44.334 49.036C44.85 48.184 44.91 48.052 45.318 47.044V47.98C45.606 47.944 45.834 47.932 46.194 47.932H46.818ZM60.198 54.208V50.092H62.358C62.838 50.092 63.306 50.116 63.75 50.152V48.724C63.318 48.772 62.886 48.796 62.358 48.796H60.198V46.468C60.198 45.88 60.222 45.496 60.27 45.076H58.734C58.794 45.496 58.806 45.808 58.806 46.468V54.208H56.826V48.652C56.826 48.076 56.85 47.644 56.898 47.212H55.362C55.41 47.632 55.434 48.1 55.434 48.652V54.208H55.086C54.45 54.208 54.042 54.184 53.55 54.136V55.6C54.09 55.54 54.57 55.516 55.086 55.516H62.862C63.438 55.516 63.834 55.54 64.374 55.6V54.136C63.906 54.184 63.474 54.208 62.862 54.208H60.198Z" fill="#E6650C"/>
</svg>
