<svg width="80" height="80" viewBox="0 0 80 80" fill="none" xmlns="http://www.w3.org/2000/svg">
<circle cx="40" cy="40" r="39.5" fill="white" stroke="#E6650C"/>
<path d="M15.976 33.104V32.384C15.976 31.964 15.988 31.736 16.024 31.496H14.608C14.644 31.76 14.668 31.976 14.668 32.384V33.104H11.524C10.876 33.104 10.54 33.092 10.132 33.032V34.376C10.588 34.328 10.96 34.304 11.536 34.304H13.936C12.988 35.528 11.536 36.572 9.76 37.28C10.156 37.592 10.42 37.904 10.708 38.384C11.584 37.94 12.196 37.556 12.868 37.016C13.672 36.368 14.152 35.852 14.692 35.084C14.668 35.456 14.668 35.744 14.668 36.188V37.868C14.668 38.396 14.644 38.648 14.584 39.008H16.048C15.988 38.648 15.976 38.336 15.976 37.856V36.188C15.976 35.984 15.952 35.372 15.94 35.072C16.42 35.78 16.924 36.32 17.752 36.968C18.544 37.604 19.18 38.012 20.032 38.42C20.32 37.952 20.56 37.664 21.016 37.256C19.12 36.56 17.584 35.516 16.672 34.304H19.264C19.852 34.304 20.236 34.328 20.656 34.376V33.032C20.308 33.092 19.972 33.104 19.264 33.104H15.976ZM11.512 30.044C10.972 30.044 10.636 30.032 10.24 29.996C10.264 30.296 10.288 30.572 10.288 30.992V31.64C10.288 31.964 10.264 32.264 10.228 32.576H11.548V31.16H19.252V32.576H20.56C20.524 32.276 20.512 32 20.512 31.616V31.016C20.512 30.548 20.524 30.272 20.56 29.996C20.224 30.032 19.852 30.044 19.276 30.044H18.544C18.796 29.696 19.24 28.952 19.564 28.34L18.28 27.98C17.98 28.76 17.656 29.372 17.176 30.044H15.244L16.288 29.696C15.892 28.868 15.7 28.52 15.292 27.884L14.056 28.28C14.416 28.772 14.668 29.252 15.004 30.044H12.568L13.552 29.72C13.24 29.072 12.916 28.544 12.484 27.992L11.236 28.472C11.608 28.904 11.944 29.42 12.244 30.044H11.512ZM28.132 37.604C29.308 38.432 30.592 38.852 32.68 39.092C32.872 38.612 32.992 38.396 33.352 37.904C32.152 37.844 31.588 37.772 30.712 37.568C31.276 37.244 31.384 37.16 32.452 36.32L31.48 35.672C31.204 35.972 31.096 36.08 30.88 36.284C30.868 36.032 30.868 35.888 30.868 35.54V34.34C31.492 34.808 31.984 35.096 32.836 35.468C33.052 34.964 33.184 34.748 33.508 34.328C32.128 33.908 31.228 33.38 30.472 32.564H31.888C32.44 32.564 32.74 32.576 33.112 32.624V31.556C32.8 31.604 32.5 31.616 31.888 31.616H28.252V31.124H31.072C31.66 31.124 31.816 31.136 32.2 31.172V30.188C31.864 30.224 31.684 30.236 31.072 30.236H28.252V29.744H31.468C31.984 29.744 32.296 29.756 32.68 29.804V28.724C32.332 28.784 32.044 28.796 31.468 28.796H30.16C30.304 28.592 30.352 28.52 30.484 28.304C30.628 28.064 30.628 28.064 30.7 27.932L29.356 27.692C29.14 28.172 29.02 28.4 28.756 28.796H26.656C26.44 28.424 26.188 28.052 25.888 27.692L24.592 27.956C24.88 28.28 25.012 28.448 25.228 28.796H23.932C23.356 28.796 23.08 28.784 22.732 28.724V29.804C23.128 29.756 23.44 29.744 23.932 29.744H26.98V30.236H24.352C23.728 30.236 23.536 30.224 23.224 30.188V31.172C23.596 31.136 23.764 31.124 24.352 31.124H26.98V31.616H23.524C22.912 31.616 22.6 31.604 22.312 31.556V32.624C22.66 32.576 22.924 32.564 23.524 32.564H24.952C24.652 32.936 24.388 33.188 23.956 33.5C23.332 33.956 22.852 34.196 21.916 34.52C22.252 34.916 22.408 35.168 22.612 35.648C23.32 35.312 23.632 35.132 24.244 34.712V37.772C23.632 37.832 23.308 37.856 23.128 37.868C23.068 37.868 23.032 37.868 23.02 37.868C22.996 37.868 22.984 37.868 22.972 37.868C22.972 37.868 22.948 37.868 22.924 37.868C22.9 37.868 22.876 37.856 22.828 37.856L23.02 39.068C23.236 39.008 23.392 38.984 23.644 38.96C25.576 38.72 26.428 38.588 28.144 38.264L28.132 37.604ZM25.492 36.524H26.98C27.268 36.872 27.424 37.028 27.772 37.316C26.536 37.532 26.524 37.544 25.492 37.652V36.524ZM30.052 36.524C30.1 36.524 30.34 36.524 30.568 36.536C30.268 36.764 30.076 36.884 29.548 37.208C29.068 37.004 28.72 36.788 28.396 36.524H30.052ZM25.792 33.308C26.02 33.056 26.116 32.912 26.368 32.564H29.044C29.356 32.948 29.464 33.056 29.704 33.308H28.276C28.288 33.008 28.288 32.96 28.336 32.78H27.028C27.064 32.96 27.076 33.056 27.076 33.308H25.792ZM25.48 34.136H29.68V34.544H25.48V34.136ZM25.48 35.288H29.68V35.696H25.48V35.288ZM43.504 31.604C43.36 32.444 42.952 33.44 42.352 34.412C42.076 33.5 41.908 32.396 41.8 30.824H43.96C44.572 30.824 45.028 30.848 45.424 30.884V29.564C45.112 29.624 44.788 29.636 44.152 29.636H43.792L44.416 29.204C43.96 28.616 43.756 28.412 43.204 27.944L42.28 28.532C42.772 28.94 43 29.192 43.336 29.636H41.752C41.752 29.516 41.752 29.192 41.752 29.084C41.752 28.688 41.776 28.196 41.812 27.944H40.384C40.432 28.208 40.432 28.256 40.444 28.7C40.468 29.228 40.468 29.54 40.48 29.636H37C36.376 29.636 35.884 29.612 35.452 29.576C35.512 30.056 35.524 30.356 35.524 31.28C35.524 33.416 35.404 35.012 35.164 36.02C35.008 36.704 34.756 37.268 34.336 37.916C34.768 38.228 35.008 38.456 35.38 38.936C35.908 38.096 36.148 37.556 36.364 36.596C36.544 35.78 36.652 34.952 36.736 33.584H38.488C38.464 34.556 38.404 35.336 38.308 35.756C38.248 36.056 38.14 36.128 37.768 36.128C37.42 36.128 37.24 36.116 36.604 36.032C36.784 36.5 36.856 36.788 36.916 37.304C37.3 37.328 37.492 37.34 37.828 37.34C38.752 37.34 39.184 37.16 39.376 36.68C39.58 36.176 39.652 35.54 39.772 33.38C39.796 32.912 39.82 32.576 39.844 32.36C39.592 32.396 39.412 32.408 38.992 32.408H36.784C36.796 31.976 36.796 31.976 36.808 30.824H40.528C40.66 32.936 40.924 34.376 41.428 35.612C40.516 36.584 39.46 37.304 38.2 37.82C38.608 38.168 38.74 38.312 39.112 38.864C40.18 38.336 41.116 37.652 42.016 36.764C42.712 37.892 43.66 38.696 44.272 38.696C44.932 38.696 45.352 37.988 45.628 36.368C45.112 36.092 44.956 35.972 44.548 35.564C44.404 36.692 44.404 36.692 44.32 36.968C44.26 37.124 44.212 37.196 44.164 37.196C44.092 37.196 43.828 36.98 43.624 36.764C43.372 36.488 43.132 36.152 42.904 35.732C43.516 34.904 43.996 34.028 44.524 32.732C44.716 32.276 44.716 32.276 44.788 32.096L43.504 31.604ZM50.644 33.248C50.62 33.596 50.608 33.74 50.572 33.944C50.368 35.036 49.84 35.96 49 36.68C48.376 37.208 47.884 37.508 47.14 37.784C47.596 38.252 47.788 38.516 48.016 38.96C49.432 38.252 50.404 37.424 51.064 36.32C51.64 35.372 51.904 34.496 52 33.248H54.304C54.304 33.344 54.304 33.428 54.304 33.5C54.304 33.572 54.304 33.632 54.304 33.68V33.944C54.304 35.192 54.112 36.776 53.932 37.136C53.824 37.316 53.692 37.364 53.248 37.364C52.9 37.364 52.372 37.304 51.796 37.208C52.012 37.796 52.096 38.084 52.156 38.612C52.96 38.648 53.152 38.66 53.392 38.66C54.46 38.66 54.892 38.492 55.156 37.964C55.456 37.328 55.66 35.432 55.66 32.948C55.66 32.744 55.66 32.708 55.66 32.54C56.188 33.056 56.488 33.308 57.148 33.8C57.46 33.224 57.556 33.092 58.06 32.504C56.56 31.544 55.528 30.464 54.736 29.024C54.472 28.544 54.352 28.292 54.268 27.98L52.936 28.496C53.02 28.64 53.14 28.88 53.188 29C53.704 30.116 54.328 31.064 55.168 32.012C54.88 32.024 54.712 32.024 54.424 32.024H50.008C49.768 32.024 49.708 32.024 49.384 32C50.164 31.1 50.872 30.032 51.316 29.084C51.46 28.76 51.52 28.652 51.64 28.472L50.2 27.956C50.14 28.316 50.008 28.64 49.72 29.168C48.952 30.596 48.052 31.58 46.564 32.612C46.996 33.02 47.284 33.38 47.488 33.788C48.112 33.308 48.412 33.044 48.988 32.456V33.308C49.3 33.272 49.6 33.248 50.008 33.248H50.644ZM65.536 30.308C66.064 30.356 66.376 30.452 66.748 30.668C67.708 31.244 68.224 32.18 68.224 33.332C68.224 34.616 67.6 35.756 66.556 36.332C65.992 36.656 65.272 36.848 64.168 36.992C64.552 37.496 64.696 37.76 64.9 38.396C65.74 38.252 66.208 38.132 66.784 37.892C68.62 37.148 69.7 35.492 69.7 33.416C69.7 30.716 67.828 28.964 64.948 28.964C63.244 28.964 61.828 29.54 60.82 30.644C59.968 31.58 59.5 32.816 59.5 34.136C59.5 36.068 60.484 37.46 61.852 37.46C62.836 37.46 63.604 36.752 64.288 35.204C64.888 33.848 65.308 32.192 65.536 30.308ZM64.072 30.32C63.928 31.676 63.532 33.296 63.076 34.376C62.644 35.408 62.236 35.912 61.84 35.912C61.312 35.912 60.892 35.132 60.892 34.148C60.892 32.864 61.516 31.628 62.524 30.908C63.016 30.56 63.448 30.392 64.072 30.32ZM18.694 46.384C17.998 46.384 17.662 46.372 17.23 46.324C17.278 46.744 17.29 47.08 17.29 47.8V54.52C17.29 55.084 17.266 55.612 17.218 55.912H18.574V55.3H24.502V55.912H25.882C25.822 55.528 25.81 55.228 25.81 54.52V47.8C25.81 47.056 25.822 46.732 25.87 46.324C25.426 46.372 25.09 46.384 24.394 46.384H21.61C21.826 45.928 22.006 45.52 22.222 44.944L20.71 44.8C20.59 45.352 20.422 45.856 20.158 46.384H18.694ZM18.586 47.608H24.514V48.964H18.586V47.608ZM18.586 50.116H24.514V51.484H18.586V50.116ZM18.586 52.636H24.514V54.088H18.586V52.636ZM30.994 46.912H29.53C29.038 46.912 28.738 46.9 28.414 46.852V47.956C28.75 47.908 29.026 47.896 29.53 47.896H30.994V48.412H29.962C29.434 48.412 29.122 48.4 28.786 48.376C28.81 48.676 28.822 48.904 28.822 49.468V51.016C28.822 51.604 28.81 51.856 28.786 52.156C29.122 52.132 29.41 52.12 29.95 52.12H30.994V52.648H29.77C29.23 52.648 28.978 52.636 28.642 52.588V53.716C28.966 53.68 29.374 53.668 29.758 53.668H30.994V54.328C29.722 54.4 29.494 54.412 28.954 54.412C28.69 54.412 28.582 54.412 28.33 54.388L28.546 55.672C28.834 55.624 29.014 55.6 29.242 55.576C31.438 55.408 32.314 55.312 33.958 55.072C34.366 55.36 34.654 55.648 34.906 56.02C35.386 55.372 35.578 55.06 35.866 54.448C36.058 54.964 36.118 55.216 36.142 55.744C36.322 55.756 36.91 55.78 37.102 55.78C38.002 55.78 38.386 55.6 38.602 55.072C38.902 54.376 39.058 52.684 39.118 49.588C39.154 47.86 39.154 47.764 39.202 47.332C38.878 47.368 38.59 47.38 38.074 47.38H37.03C37.066 45.304 37.066 45.304 37.126 44.98H35.746C35.806 45.316 35.818 45.508 35.818 46.504C35.818 46.876 35.818 47.08 35.806 47.38H35.626C35.218 47.38 35.014 47.368 34.774 47.332V48.628C35.086 48.592 35.278 48.58 35.77 48.58C35.71 50.128 35.638 50.872 35.458 51.748C35.23 52.768 34.834 53.74 34.318 54.508V53.992C33.19 54.148 32.782 54.196 32.158 54.256V53.668H33.502C33.958 53.668 34.126 53.68 34.342 53.728V52.6C34.066 52.636 33.814 52.648 33.214 52.648H32.158V52.12H33.274C33.838 52.12 34.078 52.12 34.354 52.144C34.342 51.988 34.33 51.628 34.318 51.052V49.432C34.318 48.82 34.33 48.628 34.354 48.376C34.102 48.4 33.886 48.412 33.346 48.412H32.158V47.896H33.658C34.186 47.896 34.342 47.908 34.522 47.944V46.852C34.246 46.9 33.97 46.912 33.406 46.912H32.158V46.24C32.758 46.156 33.358 46.06 33.802 45.976C33.958 45.94 34.354 45.88 34.462 45.868L33.742 44.884C32.926 45.268 30.862 45.52 28.51 45.532C28.738 45.94 28.834 46.156 28.93 46.492C29.83 46.444 30.166 46.42 30.994 46.348V46.912ZM30.994 49.312V49.816H29.95V49.312H30.994ZM32.158 49.312H33.202V49.816H32.158V49.312ZM30.994 50.692V51.22H29.95V50.692H30.994ZM32.158 50.692H33.202V51.22H32.158V50.692ZM37.918 48.58C37.906 48.976 37.906 49.048 37.894 49.42C37.882 50.392 37.882 50.392 37.87 50.812C37.822 52.144 37.786 52.66 37.702 53.296C37.558 54.412 37.474 54.556 36.934 54.556C36.67 54.556 36.49 54.532 35.878 54.436C36.61 52.828 36.886 51.436 37.006 48.58H37.918ZM48.094 48.568H47.338C46.702 48.568 46.27 48.544 45.886 48.496V49.876C46.306 49.828 46.822 49.804 47.35 49.804H48.094V54.184C48.094 55.06 48.07 55.516 48.01 55.996H49.51C49.45 55.504 49.426 55.012 49.426 54.184V49.804H50.266C50.842 49.804 51.262 49.828 51.73 49.876V48.496C51.334 48.544 50.926 48.568 50.278 48.568H49.426V46.396C49.426 45.748 49.45 45.364 49.51 44.956H48.01C48.082 45.412 48.094 45.724 48.094 46.396V48.568ZM41.29 46.432C41.59 46.396 41.89 46.384 42.322 46.384H44.398C44.854 46.384 45.082 46.396 45.418 46.432V45.256C45.106 45.304 44.878 45.316 44.398 45.316H42.322C41.83 45.316 41.59 45.304 41.29 45.256V46.432ZM40.786 48.148C41.134 48.1 41.398 48.088 41.794 48.088H44.89C45.394 48.088 45.634 48.1 45.91 48.136V46.936C45.622 46.984 45.358 46.996 44.89 46.996H41.806C41.362 46.996 41.086 46.972 40.786 46.924V48.148ZM41.302 49.816C41.578 49.78 41.698 49.78 42.094 49.78H44.638C45.022 49.78 45.13 49.78 45.406 49.816V48.676C45.154 48.712 45.046 48.712 44.638 48.712H42.094C41.698 48.712 41.554 48.7 41.302 48.676V49.816ZM41.302 51.52C41.554 51.496 41.698 51.484 42.082 51.484H44.614C45.01 51.484 45.166 51.496 45.406 51.52V50.38C45.154 50.416 45.046 50.416 44.638 50.416H42.094C41.674 50.416 41.518 50.404 41.302 50.38V51.52ZM42.562 55.456H44.23V55.828H45.514C45.466 55.528 45.454 55.24 45.454 54.784V53.02C45.454 52.6 45.466 52.372 45.502 52.096C45.274 52.12 45.094 52.132 44.722 52.132H42.142C41.698 52.132 41.53 52.12 41.302 52.096C41.338 52.42 41.35 52.648 41.35 53.032V54.844C41.35 55.312 41.338 55.648 41.29 55.996H42.562V55.456ZM42.538 53.224H44.242V54.388H42.538V53.224ZM55.702 46.708C55.918 47.068 56.026 47.284 56.194 47.728H55.51C55.006 47.728 54.814 47.716 54.55 47.692C54.562 47.968 54.574 48.196 54.574 48.556V51.316C54.574 51.928 54.562 52.216 54.526 52.516C54.922 52.492 55.15 52.48 55.798 52.48H56.302C56.302 52.72 56.302 52.804 56.29 52.996H54.43C53.83 52.996 53.434 52.972 53.074 52.924V54.148C53.494 54.1 53.902 54.076 54.43 54.076H56.014C55.774 54.424 55.474 54.628 54.946 54.796C54.586 54.904 54.442 54.928 53.506 55.036C53.902 55.504 54.07 55.744 54.262 56.128C55.186 55.936 55.642 55.78 56.158 55.48C56.722 55.144 57.07 54.712 57.322 54.076H59.734V54.916C59.734 55.384 59.71 55.696 59.662 55.996H61.054C61.006 55.648 60.982 55.348 60.982 54.916V54.076H62.494C63.058 54.076 63.49 54.1 63.886 54.148V52.924C63.55 52.972 63.142 52.996 62.494 52.996H60.982V52.48H61.282C61.942 52.48 62.17 52.492 62.554 52.516C62.518 52.24 62.506 51.916 62.506 51.244V49C62.506 48.388 62.518 48.016 62.542 47.692C62.23 47.716 62.002 47.728 61.39 47.728L62.182 47.464C62.026 47.164 61.978 47.104 61.726 46.708H62.662C63.19 46.708 63.538 46.72 63.886 46.768V45.556C63.574 45.604 63.226 45.628 62.662 45.628H60.382C60.562 45.268 60.562 45.268 60.682 45.028L59.434 44.704C59.254 45.34 58.906 45.952 58.354 46.6V45.556C58.066 45.604 57.742 45.628 57.226 45.628H55.726C55.894 45.304 55.99 45.112 56.026 45.04L54.766 44.74C54.682 45.064 54.526 45.4 54.19 45.88C53.83 46.408 53.506 46.756 52.918 47.248C53.254 47.56 53.542 47.884 53.77 48.232C54.298 47.74 54.61 47.38 55.078 46.708H55.702ZM57.346 46.708C57.694 46.708 57.994 46.72 58.234 46.732C58.09 46.888 58.03 46.936 57.85 47.104C58.234 47.332 58.414 47.464 58.666 47.728H56.494L57.346 47.476C57.166 47.128 57.094 46.996 56.902 46.708H57.346ZM58.954 47.728C59.23 47.44 59.47 47.128 59.758 46.708H60.49C60.754 47.104 60.838 47.26 61.054 47.728H58.954ZM57.526 52.996C57.55 52.78 57.55 52.708 57.55 52.48H59.734V52.996H57.526ZM55.798 48.616H61.27V49.036H55.798V48.616ZM55.798 49.864H61.27V50.308H55.798V49.864ZM55.798 51.136H61.27V51.58H55.798V51.136Z" fill="#E6650C"/>
</svg>
