<svg width="80" height="80" viewBox="0 0 80 80" fill="none" xmlns="http://www.w3.org/2000/svg">
<circle cx="40" cy="40" r="39.5" fill="white" stroke="#E6650C"/>
<path d="M11.474 30.704C11.63 30.296 11.702 30.056 11.81 29.612C12.854 29.48 14.03 29.264 14.954 29.012L14.102 27.884C13.802 28.04 13.442 28.148 12.926 28.268C11.702 28.52 9.818 28.712 8.39 28.712C8.27 28.712 8.102 28.712 7.886 28.712C8.174 29.252 8.222 29.36 8.366 29.864C9.062 29.852 9.062 29.852 10.514 29.744C10.418 30.116 10.346 30.332 10.202 30.704H8.714C8.138 30.704 7.814 30.692 7.418 30.644V31.904C7.826 31.868 8.21 31.844 8.63 31.844H9.59C8.93 32.78 8.138 33.416 6.89 33.992C7.31 34.376 7.466 34.568 7.73 35.036C8.774 34.412 9.29 33.98 9.962 33.212C10.01 33.644 10.022 33.812 10.022 34.208V37.436C10.022 37.64 9.938 37.712 9.698 37.712C9.434 37.712 9.17 37.688 8.762 37.604C8.93 38.132 8.978 38.36 9.002 38.84C9.266 38.864 9.602 38.876 9.998 38.876C10.442 38.876 10.742 38.792 10.946 38.636C11.15 38.456 11.198 38.288 11.198 37.736V34.196C11.198 33.8 11.21 33.572 11.27 33.116H10.046C10.442 32.636 10.658 32.324 10.934 31.844H11.714C12.374 33.152 13.634 34.292 15.314 35.084C15.506 34.52 15.614 34.304 15.938 33.836C15.218 33.608 14.702 33.356 14.114 32.912C13.646 32.564 13.262 32.192 13.046 31.844H14.342C14.87 31.844 15.326 31.868 15.674 31.904V30.644C15.326 30.68 14.906 30.704 14.318 30.704H11.474ZM5.054 28.94C6.074 29.576 6.398 29.816 7.142 30.56L7.922 29.528C7.118 28.82 6.71 28.52 5.858 28.004L5.054 28.94ZM4.574 31.964C5.558 32.516 5.93 32.768 6.782 33.5L7.502 32.408C6.614 31.712 6.194 31.46 5.306 30.992L4.574 31.964ZM6.23 34.304C5.774 36.032 5.222 37.292 4.658 37.976L5.774 38.948C6.362 37.892 6.89 36.512 7.274 35.048L6.23 34.304ZM8.174 38.444C8.834 37.28 9.11 36.536 9.47 34.964L8.402 34.628C8.282 35.312 8.186 35.636 7.946 36.224C7.706 36.836 7.538 37.148 7.118 37.76L8.174 38.444ZM11.462 34.928C11.954 36.416 12.122 37.1 12.314 38.36L13.514 37.892C13.118 36.32 12.89 35.624 12.47 34.592L11.462 34.928ZM13.166 35.036C13.886 36.224 14.222 36.956 14.702 38.336L15.842 37.7C15.242 36.356 14.834 35.612 14.15 34.568L13.166 35.036ZM20.258 29.972C20.294 28.916 20.294 28.916 20.294 28.688C20.306 28.292 20.318 28.148 20.366 27.896H18.926C18.974 28.196 18.998 28.484 18.998 28.964C18.998 29.6 18.998 29.624 18.986 29.972H18.446C17.822 29.972 17.45 29.948 17.126 29.9V31.304C17.474 31.256 17.822 31.232 18.338 31.232H18.938C18.842 32.672 18.674 33.656 18.374 34.676C18.014 35.888 17.534 36.776 16.778 37.664C17.174 38.036 17.438 38.36 17.762 38.888C18.686 37.676 19.214 36.62 19.598 35.216C19.934 33.992 20.114 32.852 20.21 31.232H21.362C21.338 32.984 21.338 32.984 21.29 34.04C21.218 35.372 21.11 36.428 20.978 36.884C20.87 37.28 20.762 37.364 20.426 37.364C20.15 37.364 19.706 37.304 19.25 37.22C19.406 37.76 19.442 37.916 19.466 38.504C19.982 38.564 20.426 38.588 20.726 38.588C21.71 38.588 22.058 38.276 22.274 37.22C22.49 36.2 22.61 34.388 22.634 31.88C22.646 30.368 22.646 30.344 22.694 29.924C22.322 29.96 21.974 29.972 21.35 29.972H20.258ZM24.686 37.748H26.45V38.6H27.806C27.758 38.216 27.734 37.844 27.734 37.268V30.392C27.734 29.84 27.746 29.528 27.794 29.132C27.458 29.18 27.194 29.192 26.714 29.192H24.434C23.978 29.192 23.702 29.18 23.354 29.132C23.402 29.528 23.414 29.84 23.414 30.392V37.28C23.414 37.82 23.39 38.288 23.342 38.66H24.686V37.748ZM24.686 30.392H26.45V36.548H24.686V30.392ZM35.858 29.66C35.93 29.456 35.978 29.324 36.014 29.216C36.302 28.376 36.302 28.376 36.398 28.124L35.006 27.884C34.958 28.376 34.778 28.988 34.478 29.732C34.25 30.308 33.974 30.824 33.626 31.304V30.152C33.422 30.2 33.23 30.212 32.846 30.212H32.558V28.856C32.558 28.46 32.582 28.184 32.63 27.872H31.214C31.274 28.208 31.298 28.484 31.298 28.856V30.212H30.842C30.878 29.768 30.89 29.708 30.938 28.988L29.738 28.856C29.762 29.072 29.762 29.18 29.762 29.36C29.762 29.852 29.702 30.452 29.606 31.052C29.462 31.844 29.378 32.18 29.15 32.72C29.606 32.912 29.846 33.044 30.242 33.368C30.482 32.552 30.59 32.096 30.698 31.424H31.298V34.088C30.146 34.448 29.858 34.52 29.306 34.556L29.582 35.984C29.822 35.876 29.894 35.84 30.218 35.732C30.446 35.66 30.806 35.54 31.298 35.36V37.628C31.298 38.156 31.274 38.588 31.214 39.008H32.63C32.582 38.552 32.558 38.132 32.558 37.628V34.904C32.966 34.736 33.134 34.664 33.698 34.424L33.686 33.224C33.158 33.464 32.978 33.524 32.558 33.668V31.424H32.846C33.122 31.424 33.278 31.424 33.518 31.448C33.35 31.64 33.23 31.76 32.942 32.024C33.338 32.276 33.566 32.48 33.938 32.936C34.526 32.324 34.958 31.676 35.366 30.824H35.93C35.582 32.06 35.126 32.948 34.394 33.824C33.95 34.352 33.638 34.628 32.978 35.036C33.422 35.384 33.638 35.636 33.866 36.08C35.498 34.784 36.482 33.176 37.082 30.824H37.574C37.31 32.276 36.974 33.344 36.422 34.46C35.69 35.9 34.778 36.896 33.302 37.868C33.83 38.216 34.034 38.42 34.31 38.852C35.87 37.616 36.71 36.62 37.43 35.168C38.006 34.004 38.378 32.792 38.714 30.824H38.858C38.822 33.248 38.714 35.204 38.51 36.5C38.378 37.352 38.198 37.604 37.718 37.604C37.322 37.604 36.842 37.544 36.23 37.412C36.446 37.868 36.542 38.264 36.542 38.768C37.13 38.816 37.43 38.84 37.694 38.84C38.75 38.84 39.266 38.564 39.542 37.844C39.866 37.016 40.022 35.204 40.106 31.124C40.13 29.984 40.13 29.984 40.178 29.612C39.962 29.648 39.686 29.66 39.182 29.66H35.858ZM47.09 33.824C47.486 34.796 47.954 35.612 48.506 36.296C49.358 37.34 50.45 38.132 52.082 38.84C52.274 38.36 52.49 38.012 52.874 37.544C51.77 37.172 51.098 36.824 50.246 36.188C50.798 35.756 51.314 35.288 51.662 34.94C51.854 34.748 51.854 34.748 51.938 34.664L50.738 33.92C50.45 34.316 49.946 34.832 49.334 35.3C48.89 34.76 48.626 34.34 48.398 33.824H51.194C51.734 33.824 52.166 33.848 52.574 33.896V32.6C52.25 32.66 51.878 32.672 51.194 32.672H47.726V31.904H50.258C50.954 31.904 51.242 31.916 51.59 31.952V30.752C51.266 30.788 50.978 30.8 50.258 30.8H47.726V30.068H50.822C51.47 30.068 51.842 30.08 52.166 30.128V28.868C51.806 28.916 51.398 28.94 50.738 28.94H47.726C47.726 28.4 47.738 28.208 47.798 27.908H46.322C46.382 28.196 46.394 28.424 46.394 28.94H43.574C42.962 28.94 42.53 28.916 42.17 28.868V30.128C42.494 30.08 42.854 30.068 43.514 30.068H46.394V30.8H44.054C43.358 30.8 43.07 30.788 42.734 30.752V31.952C43.082 31.916 43.37 31.904 44.054 31.904H46.394V32.672H43.106C42.398 32.672 42.074 32.66 41.714 32.6V33.896C42.122 33.848 42.566 33.824 43.118 33.824H45.386C44.378 34.724 43.118 35.372 41.522 35.804C41.87 36.26 42.05 36.572 42.266 37.088C43.394 36.62 44.018 36.308 44.822 35.768V37.412C44.066 37.508 43.646 37.544 43.166 37.556L43.454 38.96C43.562 38.936 43.79 38.888 44.03 38.84C44.306 38.804 44.306 38.804 44.594 38.756C45.254 38.648 45.302 38.636 46.118 38.48C47.45 38.204 47.726 38.144 48.626 37.892V36.632C47.57 36.908 47.066 37.028 46.142 37.196V34.724C46.622 34.28 46.73 34.172 47.018 33.824H47.09ZM58.886 32.552V37.232C58.886 37.508 58.826 37.532 58.262 37.532C57.854 37.532 57.326 37.484 56.762 37.388C56.978 37.868 57.05 38.168 57.098 38.732C57.518 38.768 57.95 38.78 58.466 38.78C59.27 38.78 59.63 38.72 59.882 38.552C60.182 38.348 60.278 38.084 60.278 37.388V32.552H63.302C63.914 32.552 64.286 32.576 64.742 32.624V31.196C64.31 31.244 63.914 31.268 63.29 31.268H55.658C54.962 31.268 54.638 31.256 54.206 31.196V32.624C54.65 32.576 55.034 32.552 55.646 32.552H58.886ZM63.566 28.448C63.134 28.496 62.678 28.52 62.126 28.52H56.762C56.15 28.52 55.766 28.496 55.322 28.448V29.816C55.802 29.768 56.294 29.744 56.75 29.744H62.114C62.642 29.744 63.146 29.768 63.566 29.816V28.448ZM56.294 33.284C55.886 34.772 55.022 36.212 53.99 37.136C54.53 37.424 54.794 37.64 55.142 38.036C56.294 36.752 57.038 35.444 57.602 33.74L56.294 33.284ZM61.418 33.74C62.198 35.636 62.702 36.464 64.01 38.024C64.406 37.592 64.694 37.328 65.114 37.004C64.61 36.524 64.37 36.248 63.974 35.72C63.386 34.904 63.062 34.316 62.642 33.272L61.418 33.74ZM67.07 30.74C67.154 30.728 67.226 30.728 67.262 30.728C67.37 30.728 67.37 30.728 67.598 30.74C67.862 30.74 68.918 30.764 69.11 30.764C69.11 30.764 69.266 30.752 69.314 30.752C69.266 30.812 69.266 30.812 69.218 30.908C68.978 31.364 68.246 32.408 67.778 32.96C67.358 33.452 67.01 33.788 66.698 34.028L67.79 35.108C68.054 34.736 68.33 34.436 68.834 34.016C69.758 33.2 70.598 32.78 71.294 32.78C71.726 32.78 71.966 32.984 72.026 33.428C70.67 33.992 69.986 34.448 69.446 35.12C69.062 35.576 68.918 35.96 68.918 36.452C68.918 37.112 69.242 37.688 69.794 38C70.406 38.36 71.198 38.504 72.47 38.504C73.526 38.504 74.678 38.42 75.542 38.288C75.83 38.252 75.89 38.24 76.094 38.24L75.974 36.692C75.122 37.016 73.886 37.196 72.446 37.196C70.994 37.196 70.418 36.944 70.418 36.32C70.418 35.972 70.622 35.648 71.042 35.336C71.294 35.156 71.606 34.988 72.194 34.712C72.194 34.832 72.194 34.832 72.194 35C72.194 35.564 72.17 36.176 72.122 36.392L73.514 36.356C73.49 36.152 73.478 35.984 73.478 35.72C73.478 35.636 73.478 35.528 73.49 35.324C73.49 35.168 73.49 34.964 73.49 34.844C73.49 34.676 73.49 34.676 73.478 34.364V34.232C74.51 33.872 75.11 33.668 75.278 33.62C75.914 33.44 76.274 33.344 76.61 33.296L76.046 31.916C75.854 32.036 75.806 32.048 75.158 32.276C74.858 32.372 74.246 32.588 73.322 32.924C73.13 32.096 72.542 31.652 71.606 31.652C70.994 31.652 70.358 31.856 69.914 32.192C69.758 32.312 69.758 32.312 69.674 32.372L69.662 32.348C70.082 31.916 70.418 31.436 70.766 30.752C71.978 30.716 73.502 30.62 74.378 30.512C74.99 30.44 74.99 30.44 75.326 30.416L75.242 29.048C74.582 29.24 73.49 29.372 72.098 29.456C71.438 29.492 71.438 29.492 71.342 29.504C71.366 29.456 71.39 29.42 71.45 29.288C71.858 28.328 71.858 28.328 71.93 28.208L70.358 28.04C70.31 28.448 70.202 28.808 69.878 29.528C68.354 29.528 67.586 29.48 67.094 29.372L67.07 30.74ZM20.486 47.62L21.254 47.32C21.086 47.044 20.954 46.828 20.858 46.672H21.554C21.842 46.672 22.13 46.684 22.334 46.708C22.262 46.78 22.214 46.828 22.094 46.948C22.466 47.152 22.754 47.356 22.994 47.596L22.91 47.584C22.946 47.884 22.958 48.16 22.958 48.568V49.96C22.958 50.38 22.946 50.656 22.91 50.956C23.246 50.932 23.63 50.92 24.158 50.92H26.234V54.448C26.234 54.7 26.15 54.748 25.802 54.748C25.61 54.748 25.214 54.724 24.902 54.7C24.89 54.364 24.89 54.256 24.89 53.944V52.348C24.89 51.892 24.902 51.58 24.926 51.28C24.614 51.304 24.326 51.316 23.786 51.316H21.266C20.762 51.316 20.45 51.304 20.15 51.28C20.186 51.604 20.198 51.892 20.198 52.348V54.376C20.198 54.832 20.174 55.108 20.15 55.432H21.374V54.952H23.786C24.194 54.952 24.47 54.964 24.734 54.976C24.842 55.264 24.878 55.492 24.926 55.9C25.274 55.912 25.442 55.912 25.67 55.912C26.426 55.912 26.786 55.864 27.026 55.744C27.326 55.588 27.482 55.252 27.482 54.724V48.94C27.482 48.364 27.494 47.956 27.53 47.572C27.23 47.608 26.87 47.62 26.294 47.62H25.478L26.246 47.32C26.078 47.032 25.982 46.9 25.826 46.684H26.654C27.194 46.684 27.542 46.696 27.914 46.744V45.556C27.554 45.604 27.218 45.628 26.594 45.628H24.326C24.518 45.244 24.518 45.244 24.614 45.04L23.342 44.788C23.174 45.448 22.91 45.988 22.478 46.54V45.556C22.178 45.604 21.878 45.616 21.302 45.616H19.754C19.874 45.388 19.91 45.328 20.03 45.088L18.782 44.776C18.614 45.28 18.434 45.604 18.098 46.048C17.762 46.504 17.534 46.732 16.934 47.176C17.234 47.428 17.462 47.68 17.702 48.052C17.714 48.4 17.726 48.592 17.726 48.94V54.52C17.726 55.264 17.702 55.648 17.654 55.996H19.034C18.986 55.696 18.974 55.348 18.974 54.604V50.92H20.906C21.434 50.92 21.806 50.932 22.142 50.956C22.106 50.668 22.106 50.416 22.106 49.96V48.568C22.106 48.112 22.106 47.872 22.142 47.584C21.89 47.608 21.542 47.62 21.014 47.62H20.486ZM18.866 47.62C18.638 47.62 18.506 47.62 18.278 47.608C18.614 47.272 18.83 47.032 19.094 46.672H19.682C19.874 47.008 20.042 47.368 20.15 47.62H18.866ZM24.038 47.62C23.606 47.62 23.39 47.62 23.066 47.596C23.342 47.284 23.462 47.116 23.75 46.684H24.578C24.806 47.032 24.914 47.212 25.13 47.62H24.038ZM21.374 52.204H23.714V52.708H21.374V52.204ZM21.374 53.536H23.714V54.028H21.374V53.536ZM18.974 48.46H20.942V48.916H18.974V48.46ZM18.974 49.624H20.942V50.08H18.974V49.624ZM24.146 48.46H26.234V48.916H24.146V48.46ZM24.146 49.624H26.234V50.08H24.146V49.624ZM34.106 52.048V52.828H30.746C30.158 52.828 29.798 52.816 29.426 52.768V54.1C29.798 54.052 30.242 54.028 30.854 54.028H34.106V54.808C34.106 55.408 34.094 55.672 34.034 56.02H35.51C35.438 55.648 35.426 55.408 35.426 54.808V54.028H38.798C39.398 54.028 39.89 54.052 40.238 54.1V52.768C39.878 52.816 39.542 52.828 38.93 52.828H35.426V52.048H37.946C38.438 52.048 38.798 52.06 39.218 52.084C39.182 51.76 39.17 51.424 39.17 50.848V48.352C39.17 47.728 39.182 47.404 39.218 47.08C38.894 47.116 38.594 47.128 37.946 47.128C38.282 46.696 38.57 46.264 39.086 45.436L37.682 44.992C37.418 45.712 37.07 46.324 36.506 47.128H31.958L32.87 46.744C32.474 46.048 32.234 45.7 31.682 45.052L30.494 45.556C31.01 46.144 31.25 46.516 31.562 47.128C31.01 47.128 30.758 47.116 30.458 47.08C30.494 47.428 30.506 47.752 30.506 48.352V50.884C30.506 51.4 30.494 51.7 30.458 52.084C30.866 52.06 31.19 52.048 31.73 52.048H34.106ZM35.426 49.024V48.208H37.886V49.024H35.426ZM34.106 49.024H31.79V48.208H34.106V49.024ZM35.426 50.956V50.032H37.886V50.956H35.426ZM34.106 50.956H31.79V50.032H34.106V50.956ZM35.762 46.624C35.402 45.808 35.258 45.544 34.79 44.848L33.554 45.196C34.058 45.988 34.238 46.336 34.49 47.056L35.762 46.624ZM47.726 47.8V54.568C47.726 55.3 47.714 55.66 47.654 56.008H49.106C49.046 55.672 49.022 55.288 49.022 54.568V53.188H50.99C51.446 53.188 51.794 53.212 52.19 53.26V51.952C51.83 52.012 51.506 52.024 50.99 52.024H49.022V50.488H50.966C51.422 50.488 51.782 50.512 52.166 50.56V49.264C51.806 49.312 51.482 49.336 50.978 49.336H49.022V47.8H51.302C51.83 47.8 52.25 47.824 52.598 47.86V46.564C52.262 46.612 51.89 46.636 51.302 46.636H48.038C48.146 46.372 48.158 46.336 48.338 45.832C48.422 45.592 48.458 45.484 48.578 45.196L47.222 44.8C47.162 45.22 46.982 45.82 46.682 46.54C46.166 47.752 45.578 48.664 44.666 49.6C45.074 50.02 45.242 50.236 45.53 50.728C46.346 49.804 46.97 48.868 47.498 47.8H47.726ZM44.21 44.764C44.138 45.232 43.97 45.724 43.706 46.348C43.094 47.728 42.314 48.856 41.426 49.66C41.726 50.164 41.894 50.512 42.062 51.064C42.494 50.62 42.794 50.248 43.214 49.684C43.178 50.692 43.178 50.752 43.178 51.052V54.472C43.178 55.096 43.154 55.504 43.094 55.96H44.534C44.474 55.516 44.45 55.036 44.45 54.472V47.824C45.074 46.42 45.074 46.42 45.266 45.904C45.374 45.616 45.41 45.532 45.542 45.232L44.21 44.764ZM62.954 48.604C62.81 49.444 62.402 50.44 61.802 51.412C61.526 50.5 61.358 49.396 61.25 47.824H63.41C64.022 47.824 64.478 47.848 64.874 47.884V46.564C64.562 46.624 64.238 46.636 63.602 46.636H63.242L63.866 46.204C63.41 45.616 63.206 45.412 62.654 44.944L61.73 45.532C62.222 45.94 62.45 46.192 62.786 46.636H61.202C61.202 46.516 61.202 46.192 61.202 46.084C61.202 45.688 61.226 45.196 61.262 44.944H59.834C59.882 45.208 59.882 45.256 59.894 45.7C59.918 46.228 59.918 46.54 59.93 46.636H56.45C55.826 46.636 55.334 46.612 54.902 46.576C54.962 47.056 54.974 47.356 54.974 48.28C54.974 50.416 54.854 52.012 54.614 53.02C54.458 53.704 54.206 54.268 53.786 54.916C54.218 55.228 54.458 55.456 54.83 55.936C55.358 55.096 55.598 54.556 55.814 53.596C55.994 52.78 56.102 51.952 56.186 50.584H57.938C57.914 51.556 57.854 52.336 57.758 52.756C57.698 53.056 57.59 53.128 57.218 53.128C56.87 53.128 56.69 53.116 56.054 53.032C56.234 53.5 56.306 53.788 56.366 54.304C56.75 54.328 56.942 54.34 57.278 54.34C58.202 54.34 58.634 54.16 58.826 53.68C59.03 53.176 59.102 52.54 59.222 50.38C59.246 49.912 59.27 49.576 59.294 49.36C59.042 49.396 58.862 49.408 58.442 49.408H56.234C56.246 48.976 56.246 48.976 56.258 47.824H59.978C60.11 49.936 60.374 51.376 60.878 52.612C59.966 53.584 58.91 54.304 57.65 54.82C58.058 55.168 58.19 55.312 58.562 55.864C59.63 55.336 60.566 54.652 61.466 53.764C62.162 54.892 63.11 55.696 63.722 55.696C64.382 55.696 64.802 54.988 65.078 53.368C64.562 53.092 64.406 52.972 63.998 52.564C63.854 53.692 63.854 53.692 63.77 53.968C63.71 54.124 63.662 54.196 63.614 54.196C63.542 54.196 63.278 53.98 63.074 53.764C62.822 53.488 62.582 53.152 62.354 52.732C62.966 51.904 63.446 51.028 63.974 49.732C64.166 49.276 64.166 49.276 64.238 49.096L62.954 48.604Z" fill="#E6650C"/>
</svg>
